<svg width="331" height="132" viewBox="0 0 331 132" fill="none" xmlns="http://www.w3.org/2000/svg">
<rect width="331" height="132" rx="66" fill="url(#paint0_linear_94_541)"/>
<path d="M93.8 74.52V97H106.76V74.52L126.76 37.8H112.68L102.76 56.92C101.8 58.84 101.16 60.36 100.44 61.8C99.8 60.28 99.16 58.84 98.2 57L88.28 37.8H73.8L93.8 74.52ZM183.646 67.32C183.646 49.24 171.806 36.76 154.606 36.76C137.486 36.76 125.646 49.32 125.646 67.4C125.646 85.48 137.406 97.96 154.526 97.96C171.726 97.96 183.646 85.4 183.646 67.32ZM169.966 67.32C169.966 78.52 164.206 85.48 154.686 85.48C145.086 85.48 139.326 78.68 139.326 67.32C139.326 56.04 145.086 49.24 154.686 49.24C164.206 49.24 169.966 56.04 169.966 67.32ZM205.636 37.8H192.676V97H228.996V85H205.636V37.8ZM245.711 98.04C249.631 98.04 253.071 94.76 253.071 90.84C253.071 86.84 249.631 83.56 245.711 83.56C241.631 83.56 238.351 86.84 238.351 90.84C238.351 94.76 241.631 98.04 245.711 98.04Z" fill="white"/>
<defs>
<linearGradient id="paint0_linear_94_541" x1="14" y1="132" x2="353" y2="-1.62267e-06" gradientUnits="userSpaceOnUse">
<stop stop-color="#890F0F"/>
<stop offset="1" stop-color="#310407"/>
</linearGradient>
</defs>
</svg>
