<svg width="352" height="128" viewBox="0 0 352 128" fill="none" xmlns="http://www.w3.org/2000/svg">
<rect width="352" height="128" rx="64" fill="url(#paint0_linear_101_539)"/>
<path d="M114.8 72.52V95H127.76V72.52L147.76 35.8H133.68L123.76 54.92C122.8 56.84 122.16 58.36 121.44 59.8C120.8 58.28 120.16 56.84 119.2 55L109.28 35.8H94.8L114.8 72.52ZM204.646 65.32C204.646 47.24 192.806 34.76 175.606 34.76C158.486 34.76 146.646 47.32 146.646 65.4C146.646 83.48 158.406 95.96 175.526 95.96C192.726 95.96 204.646 83.4 204.646 65.32ZM190.966 65.32C190.966 76.52 185.206 83.48 175.686 83.48C166.086 83.48 160.326 76.68 160.326 65.32C160.326 54.04 166.086 47.24 175.686 47.24C185.206 47.24 190.966 54.04 190.966 65.32ZM226.636 35.8H213.676V95H249.996V83H226.636V35.8ZM266.711 96.04C270.631 96.04 274.071 92.76 274.071 88.84C274.071 84.84 270.631 81.56 266.711 81.56C262.631 81.56 259.351 84.84 259.351 88.84C259.351 92.76 262.631 96.04 266.711 96.04Z" fill="white"/>
<defs>
<linearGradient id="paint0_linear_101_539" x1="-25.5484" y1="114.526" x2="236.487" y2="-97.17" gradientUnits="userSpaceOnUse">
<stop stop-color="#170E61"/>
<stop offset="0.546875" stop-color="#38B2B3"/>
<stop offset="1" stop-color="#06A9A6"/>
</linearGradient>
</defs>
</svg>
