<svg width="42" height="42" viewBox="0 0 42 42" fill="none" xmlns="http://www.w3.org/2000/svg">
<rect width="42" height="42" rx="21" fill="#0D7AF2"/>
<path d="M21 34.2313C21.9517 34.2313 22.8461 33.9019 23.6833 33.2431C24.5206 32.5843 25.2572 31.6601 25.8931 30.4705C26.5291 29.281 27.0277 27.8833 27.3891 26.2774C27.7506 24.6716 27.9314 22.9216 27.9314 21.0274C27.9314 19.1333 27.7529 17.3787 27.396 15.7637C27.0392 14.1487 26.5428 12.7441 25.9068 11.55C25.2708 10.3559 24.5343 9.42941 23.6971 8.77059C22.8598 8.11177 21.9607 7.78235 21 7.78235C20.0392 7.78235 19.1402 8.11177 18.3029 8.77059C17.4657 9.42941 16.7314 10.3559 16.1 11.55C15.4686 12.7441 14.9722 14.1487 14.6108 15.7637C14.2493 17.3787 14.0686 19.1333 14.0686 21.0274C14.0686 22.9216 14.2493 24.6716 14.6108 26.2774C14.9722 27.8833 15.4709 29.281 16.1068 30.4705C16.7428 31.6601 17.4794 32.5843 18.3167 33.2431C19.1539 33.9019 20.0483 34.2313 21 34.2313ZM21 9.44313C21.6679 9.44313 22.3084 9.75196 22.9215 10.3696C23.5346 10.9872 24.079 11.8314 24.5548 12.902C25.0306 13.9725 25.4058 15.2055 25.6803 16.601C25.9549 17.9964 26.0922 19.4719 26.0922 21.0274C26.0922 22.5647 25.9549 24.0242 25.6803 25.4059C25.4058 26.7875 25.0306 28.016 24.5548 29.0912C24.079 30.1663 23.5346 31.0127 22.9215 31.6303C22.3084 32.248 21.6679 32.5568 21 32.5568C20.332 32.5568 19.6915 32.248 19.0784 31.6303C18.4653 31.0127 17.9209 30.1663 17.4451 29.0912C16.9693 28.016 16.5941 26.7875 16.3196 25.4059C16.0451 24.0242 15.9078 22.5647 15.9078 21.0274C15.9078 19.4719 16.0451 17.9964 16.3196 16.601C16.5941 15.2055 16.9693 13.9725 17.4451 12.902C17.9209 11.8314 18.4653 10.9872 19.0784 10.3696C19.6915 9.75196 20.332 9.44313 21 9.44313ZM20.1078 7.97451V33.9706H21.9059V7.97451H20.1078ZM21 26.1607C19.5908 26.1607 18.2549 26.2774 16.9922 26.5107C15.7294 26.7441 14.5925 27.0781 13.5814 27.5127C12.5703 27.9474 11.7444 28.4575 11.1039 29.0431L12.4902 30.1823C13.0941 29.7065 13.8193 29.3016 14.6657 28.9676C15.5121 28.6336 16.4683 28.382 17.5343 28.2128C18.6003 28.0434 19.7555 27.9588 21 27.9588C22.2445 27.9588 23.3997 28.0434 24.4657 28.2128C25.5317 28.382 26.4879 28.6336 27.3343 28.9676C28.1807 29.3016 28.9058 29.7065 29.5097 30.1823L30.8961 29.0431C30.2556 28.4575 29.4298 27.9474 28.4187 27.5127C27.4076 27.0781 26.2706 26.7441 25.0078 26.5107C23.745 26.2774 22.4091 26.1607 21 26.1607ZM33.6686 20.0941H8.33137V21.8921H33.6686V20.0941ZM21 15.9078C22.4091 15.9078 23.745 15.7912 25.0078 15.5578C26.2706 15.3245 27.4076 14.9905 28.4187 14.5559C29.4298 14.1212 30.2556 13.6111 30.8961 13.0255L29.5097 11.8863C28.9058 12.3621 28.1807 12.767 27.3343 13.101C26.4879 13.435 25.5317 13.6866 24.4657 13.8559C23.3997 14.0252 22.2445 14.1098 21 14.1098C19.7555 14.1098 18.6003 14.0252 17.5343 13.8559C16.4683 13.6866 15.5121 13.435 14.6657 13.101C13.8193 12.767 13.0941 12.3621 12.4902 11.8863L11.1039 13.0255C11.7444 13.6111 12.5703 14.1212 13.5814 14.5559C14.5925 14.9905 15.7294 15.3245 16.9922 15.5578C18.2549 15.7912 19.5908 15.9078 21 15.9078ZM21 35C22.9124 35 24.7128 34.634 26.4009 33.9019C28.0892 33.1699 29.5784 32.1588 30.8686 30.8686C32.1588 29.5784 33.1699 28.0892 33.9019 26.4009C34.634 24.7128 35 22.9124 35 21C35 19.0876 34.634 17.2872 33.9019 15.599C33.1699 13.9108 32.1588 12.4216 30.8686 11.1314C29.5784 9.84117 28.0869 8.83006 26.3941 8.09804C24.7013 7.36601 22.8987 7 20.9863 7C19.0738 7 17.2735 7.36601 15.5853 8.09804C13.8971 8.83006 12.4101 9.84117 11.1245 11.1314C9.83889 12.4216 8.83006 13.9108 8.09804 15.599C7.36601 17.2872 7 19.0876 7 21C7 22.9124 7.36601 24.7128 8.09804 26.4009C8.83006 28.0892 9.84117 29.5784 11.1314 30.8686C12.4216 32.1588 13.9108 33.1699 15.599 33.9019C17.2872 34.634 19.0876 35 21 35ZM21 33.1334C19.3438 33.1334 17.7836 32.8154 16.3196 32.1793C14.8555 31.5434 13.5654 30.6673 12.449 29.5509C11.3327 28.4346 10.4565 27.1444 9.82059 25.6803C9.18464 24.2163 8.86666 22.6562 8.86666 21C8.86666 19.3438 9.18464 17.7836 9.82059 16.3196C10.4565 14.8555 11.3304 13.5654 12.4422 12.449C13.5539 11.3327 14.8418 10.4565 16.3059 9.82059C17.7699 9.18464 19.33 8.86666 20.9863 8.86666C22.6425 8.86666 24.2026 9.18464 25.6666 9.82059C27.1307 10.4565 28.4232 11.3327 29.544 12.449C30.665 13.5654 31.5434 14.8555 32.1793 16.3196C32.8154 17.7836 33.1334 19.3438 33.1334 21C33.1334 22.6562 32.8154 24.2163 32.1793 25.6803C31.5434 27.1444 30.6673 28.4346 29.5509 29.5509C28.4346 30.6673 27.1444 31.5434 25.6803 32.1793C24.2163 32.8154 22.6562 33.1334 21 33.1334Z" fill="white" fill-opacity="0.91"/>
</svg>
