<svg width="27" height="19" viewBox="0 0 27 19" fill="none" xmlns="http://www.w3.org/2000/svg">
<g filter="url(#filter0_d_677_3379)">
<path d="M4.45445 18.9221H23.5299C24.6914 18.9221 25.5588 18.6372 26.1322 18.0675C26.7055 17.4978 26.9922 16.6433 26.9922 15.5039V8.97628C26.9922 8.6455 26.9738 8.36065 26.9371 8.12174C26.9004 7.88284 26.836 7.66599 26.7441 7.47119C26.6522 7.27639 26.5254 7.07975 26.3637 6.88128L22.5597 2.17305C22.126 1.64378 21.7455 1.22845 21.4184 0.927071C21.0913 0.625685 20.7256 0.41251 20.3213 0.287545C19.917 0.16258 19.3877 0.100098 18.7335 0.100098H9.25089C8.59667 0.100098 8.06924 0.16258 7.66863 0.287545C7.268 0.41251 6.90229 0.625685 6.57151 0.927071C6.24071 1.22845 5.86214 1.64378 5.4358 2.17305L1.62069 6.88128C1.45897 7.07975 1.33217 7.27639 1.24028 7.47119C1.14839 7.66599 1.08407 7.88284 1.04732 8.12174C1.01056 8.36065 0.992188 8.6455 0.992188 8.97628V15.5039C0.992188 16.6433 1.28071 17.4978 1.85775 18.0675C2.43479 18.6372 3.30036 18.9221 4.45445 18.9221ZM4.47651 17.1468C3.92519 17.1468 3.50251 17.0016 3.20848 16.7112C2.91444 16.4209 2.76743 15.989 2.76743 15.4157V9.92454H9.75811C9.84632 10.6155 10.0852 11.2311 10.4748 11.7714C10.8644 12.3117 11.3624 12.7363 11.9689 13.045C12.5753 13.3537 13.2498 13.5081 13.9922 13.5081C14.742 13.5081 15.4201 13.3519 16.0265 13.0395C16.633 12.7271 17.1292 12.3008 17.5151 11.7605C17.9011 11.2201 18.1381 10.6082 18.2263 9.92454H25.217V15.4157C25.217 15.989 25.0682 16.4209 24.7705 16.7112C24.4728 17.0016 24.0519 17.1468 23.5079 17.1468H4.47651ZM13.9922 11.8762C13.4703 11.8762 13.0182 11.7457 12.636 11.4847C12.2537 11.2238 11.9579 10.8912 11.7484 10.4869C11.5389 10.0826 11.4341 9.66726 11.4341 9.24091V9.20784C11.4341 8.97996 11.3643 8.77413 11.2246 8.59036C11.0849 8.40659 10.8718 8.3147 10.5851 8.3147H3.31874C3.13497 8.3147 3.02287 8.25222 2.98244 8.12726C2.94201 8.00229 2.96957 7.881 3.06514 7.76339L7.15589 2.60307C7.42788 2.25758 7.72375 2.01132 8.04352 1.86431C8.36328 1.71729 8.72163 1.64378 9.11859 1.64378H18.8659C19.2702 1.64378 19.6303 1.71729 19.9464 1.86431C20.2625 2.01132 20.5565 2.25758 20.8286 2.60307L24.9303 7.76339C25.0186 7.881 25.0424 8.00229 25.0019 8.12726C24.9615 8.25222 24.8531 8.3147 24.6768 8.3147H17.3993C17.1126 8.3147 16.9013 8.40659 16.7653 8.59036C16.6294 8.77413 16.5614 8.97996 16.5614 9.20784V9.24091C16.5614 9.66726 16.4548 10.0826 16.2416 10.4869C16.0285 10.8912 15.7307 11.2238 15.3484 11.4847C14.9662 11.7457 14.5141 11.8762 13.9922 11.8762Z" fill="white" fill-opacity="0.85"/>
</g>
<defs>
<filter id="filter0_d_677_3379" x="-3.00781" y="0.100098" width="34" height="26.8218" filterUnits="userSpaceOnUse" color-interpolation-filters="sRGB">
<feFlood flood-opacity="0" result="BackgroundImageFix"/>
<feColorMatrix in="SourceAlpha" type="matrix" values="0 0 0 0 0 0 0 0 0 0 0 0 0 0 0 0 0 0 127 0" result="hardAlpha"/>
<feOffset dy="4"/>
<feGaussianBlur stdDeviation="2"/>
<feComposite in2="hardAlpha" operator="out"/>
<feColorMatrix type="matrix" values="0 0 0 0 0 0 0 0 0 0 0 0 0 0 0 0 0 0 0.25 0"/>
<feBlend mode="normal" in2="BackgroundImageFix" result="effect1_dropShadow_677_3379"/>
<feBlend mode="normal" in="SourceGraphic" in2="effect1_dropShadow_677_3379" result="shape"/>
</filter>
</defs>
</svg>
