<svg width="29" height="29" viewBox="0 0 29 29" fill="none" xmlns="http://www.w3.org/2000/svg">
<g clip-path="url(#clip0_668_2420)">
<path d="M7.06103 16.0273H14.478C14.7621 16.0273 14.999 15.9325 15.1885 15.7431C15.3779 15.5537 15.4727 15.3168 15.4727 15.0326V5.45599C15.4727 5.18129 15.3779 4.94921 15.1885 4.75976C14.999 4.57031 14.7621 4.47559 14.478 4.47559C14.2033 4.47559 13.9712 4.57031 13.7818 4.75976C13.5923 4.94921 13.4976 5.18129 13.4976 5.45599V14.0523H7.06103C6.77685 14.0523 6.54004 14.147 6.35058 14.3365C6.16113 14.5259 6.06641 14.7579 6.06641 15.0326C6.06641 15.3168 6.16113 15.5537 6.35058 15.7431C6.54004 15.9325 6.77685 16.0273 7.06103 16.0273Z" fill="white" fill-opacity="0.85"/>
<path d="M14.4929 28.9859C16.4727 28.9859 18.3364 28.607 20.0841 27.8491C21.8318 27.0914 23.3734 26.0447 24.709 24.709C26.0447 23.3734 27.0914 21.8318 27.8491 20.0841C28.607 18.3364 28.9859 16.4727 28.9859 14.4929C28.9859 12.5132 28.607 10.6495 27.8491 8.90178C27.0914 7.15411 26.0447 5.61246 24.709 4.27683C23.3734 2.94121 21.8294 1.8945 20.0769 1.1367C18.3246 0.3789 16.4585 0 14.4787 0C12.499 0 10.6353 0.3789 8.88758 1.1367C7.1399 1.8945 5.60062 2.94121 4.26973 4.27683C2.93884 5.61246 1.8945 7.15411 1.1367 8.90178C0.3789 10.6495 0 12.5132 0 14.4929C0 16.4727 0.3789 18.3364 1.1367 20.0841C1.8945 21.8318 2.94121 23.3734 4.27683 24.709C5.61246 26.0447 7.15411 27.0914 8.90178 27.8491C10.6495 28.607 12.5132 28.9859 14.4929 28.9859ZM14.4929 26.5703C12.8163 26.5703 11.2486 26.2578 9.78984 25.6326C8.33107 25.0075 7.04991 24.1431 5.94636 23.0395C4.84282 21.936 3.98082 20.6548 3.36037 19.1961C2.73992 17.7373 2.42969 16.1696 2.42969 14.4929C2.42969 12.8163 2.73992 11.2486 3.36037 9.78984C3.98082 8.33107 4.84045 7.04754 5.93926 5.93926C7.03806 4.83097 8.31685 3.9666 9.77562 3.34615C11.2344 2.72571 12.8021 2.41549 14.4787 2.41549C16.1554 2.41549 17.7231 2.72571 19.1818 3.34615C20.6406 3.9666 21.9241 4.83097 23.0324 5.93926C24.1407 7.04754 25.0075 8.33107 25.6326 9.78984C26.2578 11.2486 26.5703 12.8163 26.5703 14.4929C26.5703 16.1696 26.2601 17.7373 25.6397 19.1961C25.0192 20.6548 24.1572 21.936 23.0537 23.0395C21.9501 24.1431 20.6666 25.0075 19.2031 25.6326C17.7397 26.2578 16.1696 26.5703 14.4929 26.5703Z" fill="white"/>
</g>
<defs>
<clipPath id="clip0_668_2420">
<rect width="28.9859" height="29" fill="white"/>
</clipPath>
</defs>
</svg>
