<svg width="28" height="27" viewBox="0 0 28 27" fill="none" xmlns="http://www.w3.org/2000/svg">
<path d="M12.7706 26.4878H15.2259C15.6959 26.4878 16.0991 26.3561 16.4353 26.0927C16.7716 25.8294 16.9925 25.4708 17.0979 25.0171L17.6205 22.744L18.0095 22.6103L19.9908 23.8258C20.3797 24.077 20.7889 24.1743 21.2184 24.1175C21.6479 24.0608 22.0288 23.8663 22.3611 23.5341L24.0628 21.8445C24.395 21.5122 24.5894 21.1314 24.6462 20.702C24.7029 20.2725 24.6057 19.8632 24.3544 19.4742L23.1146 17.5051L23.2605 17.1404L25.5335 16.6057C25.9792 16.5003 26.3358 16.2774 26.6032 15.937C26.8706 15.5967 27.0043 15.1956 27.0043 14.7337V12.327C27.0043 11.8651 26.8706 11.464 26.6032 11.1236C26.3358 10.7833 25.9792 10.5605 25.5335 10.4551L23.2849 9.90812L23.1268 9.51915L24.3666 7.55001C24.6178 7.16104 24.7151 6.75385 24.6584 6.32842C24.6016 5.90298 24.4071 5.5201 24.0749 5.17976L22.3731 3.47803C22.049 3.15388 21.6722 2.96345 21.2427 2.90672C20.8133 2.85 20.4041 2.94319 20.0151 3.18629L18.0338 4.40182L17.6205 4.2438L17.0979 1.97078C16.9925 1.52509 16.7716 1.16854 16.4353 0.901122C16.0991 0.633707 15.6959 0.5 15.2259 0.5H12.7706C12.3006 0.5 11.8974 0.633707 11.5611 0.901122C11.2248 1.16854 11.004 1.52509 10.8987 1.97078L10.3638 4.2438L9.95057 4.40182L7.98142 3.18629C7.58435 2.94319 7.1731 2.85 6.74767 2.90672C6.32224 2.96345 5.94341 3.15388 5.61117 3.47803L3.9216 5.17976C3.58125 5.5201 3.38473 5.90298 3.33206 6.32842C3.27939 6.75385 3.37866 7.16104 3.62986 7.55001L4.85754 9.51915L4.71168 9.90812L2.46297 10.4551C2.00917 10.5605 1.65059 10.7833 1.38723 11.1236C1.12387 11.464 0.992188 11.8651 0.992188 12.327V14.7337C0.992188 15.1956 1.12589 15.5967 1.39331 15.937C1.66072 16.2774 2.01728 16.5003 2.46297 16.6057L4.73598 17.1404L4.86969 17.5051L3.64202 19.4742C3.39081 19.8632 3.29154 20.2725 3.34422 20.702C3.39689 21.1314 3.59339 21.5122 3.93374 21.8445L5.62331 23.5341C5.95555 23.8663 6.33642 24.0608 6.7659 24.1175C7.19539 24.1743 7.60867 24.077 8.00574 23.8258L9.97488 22.6103L10.3638 22.744L10.8987 25.0171C11.004 25.4708 11.2248 25.8294 11.5611 26.0927C11.8974 26.3561 12.3006 26.4878 12.7706 26.4878ZM12.9651 24.5916C12.7625 24.5916 12.645 24.4984 12.6126 24.3121L11.8832 21.2976C11.5105 21.2084 11.156 21.093 10.8197 20.9512C10.4834 20.8093 10.1856 20.6574 9.92625 20.4954L7.27643 22.124C7.13056 22.2294 6.98065 22.2092 6.82668 22.0633L5.39237 20.629C5.26272 20.5075 5.24651 20.3575 5.34374 20.1792L6.97255 17.5538C6.83478 17.2945 6.69297 16.9987 6.54711 16.6664C6.40125 16.3342 6.2797 15.9817 6.18245 15.6089L3.16797 14.8918C2.98159 14.8593 2.8884 14.7418 2.8884 14.5393V12.5093C2.8884 12.3148 2.98159 12.1973 3.16797 12.1568L6.17031 11.4275C6.26754 11.0305 6.39517 10.6617 6.55319 10.3214C6.7112 9.98105 6.84289 9.69743 6.94824 9.47053L5.33159 6.84502C5.22625 6.66674 5.2384 6.50872 5.36805 6.37096L6.81452 4.96095C6.96039 4.8313 7.11436 4.81104 7.27643 4.90019L9.90194 6.49251C10.1613 6.34665 10.4672 6.20078 10.8197 6.05492C11.1722 5.90906 11.5307 5.78751 11.8954 5.69027L12.6126 2.67578C12.645 2.4894 12.7625 2.39621 12.9651 2.39621H15.0314C15.234 2.39621 15.3474 2.4894 15.3717 2.67578L16.1132 5.71457C16.4941 5.81182 16.8486 5.93135 17.1768 6.07316C17.505 6.21497 17.8028 6.35881 18.0702 6.50467L20.7079 4.90019C20.8781 4.81104 21.0361 4.8313 21.182 4.96095L22.6162 6.37096C22.754 6.50872 22.7662 6.66674 22.6527 6.84502L21.0361 9.47053C21.1495 9.69743 21.2832 9.98105 21.4373 10.3214C21.5912 10.6617 21.7168 11.0305 21.814 11.4275L24.8285 12.1568C25.0149 12.1973 25.1081 12.3148 25.1081 12.5093V14.5393C25.1081 14.7418 25.0149 14.8593 24.8285 14.8918L21.8019 15.6089C21.7047 15.9817 21.5852 16.3342 21.4433 16.6664C21.3015 16.9987 21.1577 17.2945 21.0118 17.5538L22.6406 20.1792C22.7459 20.3575 22.7297 20.5075 22.592 20.629L21.1698 22.0633C21.0158 22.2092 20.8619 22.2294 20.7079 22.124L18.058 20.4954C17.7987 20.6574 17.5029 20.8093 17.1707 20.9512C16.8385 21.093 16.486 21.2084 16.1132 21.2976L15.3717 24.3121C15.3474 24.4984 15.234 24.5916 15.0314 24.5916H12.9651ZM13.9982 18.1372C14.8491 18.1372 15.625 17.9285 16.3259 17.5112C17.0269 17.0939 17.5861 16.5328 18.0034 15.8278C18.4207 15.1227 18.6294 14.3447 18.6294 13.494C18.6294 12.6512 18.4207 11.8793 18.0034 11.1783C17.5861 10.4774 17.0269 9.91826 16.3259 9.50093C15.625 9.0836 14.8491 8.87494 13.9982 8.87494C13.1474 8.87494 12.3715 9.0836 11.6705 9.50093C10.9696 9.91826 10.4084 10.4774 9.98703 11.1783C9.56565 11.8793 9.35496 12.6512 9.35496 13.494C9.35496 14.3447 9.56565 15.1206 9.98703 15.8217C10.4084 16.5226 10.9696 17.0837 11.6705 17.5051C12.3715 17.9265 13.1474 18.1372 13.9982 18.1372ZM13.9982 16.2531C13.4958 16.2531 13.036 16.1295 12.6186 15.8824C12.2013 15.6352 11.8691 15.303 11.6219 14.8857C11.3748 14.4683 11.2512 14.0045 11.2512 13.494C11.2512 12.9915 11.3748 12.5336 11.6219 12.1204C11.8691 11.7071 12.2013 11.3769 12.6186 11.1297C13.036 10.8826 13.4958 10.759 13.9982 10.759C14.4925 10.759 14.9463 10.8826 15.3597 11.1297C15.7729 11.3769 16.1031 11.7071 16.3503 12.1204C16.5974 12.5336 16.721 12.9915 16.721 13.494C16.721 13.9963 16.5974 14.4562 16.3503 14.8736C16.1031 15.2909 15.7729 15.6251 15.3597 15.8763C14.9463 16.1275 14.4925 16.2531 13.9982 16.2531Z" fill="white" fill-opacity="0.85"/>
</svg>
