<svg width="80" height="19" viewBox="0 0 80 19" fill="none" xmlns="http://www.w3.org/2000/svg">
<path d="M6.168 11.588V18.5H9.24V11.588L15.144 0.956H11.808L8.376 7.34C8.064 7.916 7.968 8.204 7.752 8.636C7.56 8.204 7.392 7.82 7.128 7.34L3.672 0.956H0.24L6.168 11.588ZM13.7066 12.548C13.7066 16.244 16.3706 18.788 20.0426 18.788C23.7146 18.788 26.3786 16.244 26.3786 12.548C26.3786 8.852 23.7146 6.308 20.0426 6.308C16.3706 6.308 13.7066 8.852 13.7066 12.548ZM16.6346 12.548C16.6346 10.388 18.0266 8.924 20.0426 8.924C22.0586 8.924 23.4506 10.388 23.4506 12.548C23.4506 14.708 22.0586 16.172 20.0426 16.172C18.0266 16.172 16.6346 14.708 16.6346 12.548ZM31.6515 18.5V0.644H28.7475V18.5H31.6515ZM36.6909 18.788C37.7469 18.788 38.6349 17.924 38.6349 16.892C38.6349 15.836 37.7469 14.972 36.6909 14.972C35.6349 14.972 34.7469 15.836 34.7469 16.892C34.7469 17.924 35.6349 18.788 36.6909 18.788ZM45.6913 18.788C47.5393 18.788 48.9553 17.972 49.9633 16.412L49.8193 18.5H51.7873L54.5713 0.835999H52.4113L51.1633 8.9C50.6113 7.388 49.0993 6.452 47.2033 6.452C43.6513 6.452 40.9873 9.452 40.9873 13.58C40.9873 16.652 42.9553 18.788 45.6913 18.788ZM46.2673 16.868C44.3713 16.868 43.1713 15.524 43.1713 13.46C43.1713 10.58 45.0433 8.372 47.4673 8.372C49.4593 8.372 50.6113 9.62 50.6113 11.708C50.6113 14.612 48.6913 16.868 46.2673 16.868ZM60.2561 18.788C62.8241 18.788 65.0561 17.276 65.8481 14.876H63.6881C63.1601 16.196 61.8641 16.964 60.3281 16.964C58.3841 16.964 57.2081 15.62 57.2081 13.436C57.2081 13.292 57.2081 13.172 57.2081 13.052L66.1361 13.028L66.2561 12.212C66.7841 8.852 64.8401 6.452 61.5041 6.452C57.8801 6.452 55.0961 9.548 55.0961 13.556C55.0961 16.724 57.1361 18.788 60.2561 18.788ZM61.4081 8.276C63.3521 8.276 64.5041 9.596 64.1921 11.588H57.4721C58.0481 9.62 59.5601 8.276 61.4081 8.276ZM70.4036 18.5H72.5396L79.1876 6.764H76.8116L73.1396 13.436C72.6356 14.396 72.1796 15.332 71.7956 16.196C71.6276 15.164 71.4836 14.348 71.2916 13.436L69.8036 6.764H67.6196L70.4036 18.5Z" fill="white" fill-opacity="0.74"/>
</svg>
